<?xml version="1.0"?>
<svg xmlns="http://www.w3.org/2000/svg" xmlns:xlink="http://www.w3.org/1999/xlink" version="1.1" baseProfile="full" viewBox="0 0 200 200" width="200" height="200">
<g fill="rgb(239,69,74)" stroke-width="0">>
<path d="M 128.5 91.4 L 115.3 95.6 L 101.5 100.1 L 87.8 105.2 L 75.2 110.9 L 64.6 117.2 L 56.7 124.1 L 52.2 131.6 L 51.4 140.4 L 53.99585256576538 147.04055299758912 L 54.9 149.1 L 60.7 154.8 L 68.7 158.8 L 78.8 161.3 L 90.6 162.3 L 103.7 162.2 L 117.5 161.2 L 131.4 159.5 L 145.1 157.4 L 149.5 158.6 L 151.26752138137817 161.4722222328186 L 151.7 161.6 L 153.9 165.6 L 152.6 170.0 L 148.6 172.2 L 134.5 173.4 L 119.7 174.4 L 104.7 174.8 L 90.2 174.3 L 76.6 172.4 L 64.5 168.7 L 54.5 162.6 L 47.6 153.7 L 45.0 142.2 L 47.127134227752684 132.29782342910767 L 47.0 130.3 L 51.5 120.1 L 60.0 111.2 L 71.2 103.5 L 84.1 96.7 L 87.67613506317139 95.15634460449219 L 85.8 95.0 L 83.4 94.4 L 81.1 93.3 L 78.9 91.9 L 76.8 90.1 L 74.8 88.0 L 75.49085369110108 87.59085369110107 L 73.3 85.4 L 72.2 82.0 L 71.3 78.3 L 70.7 74.1 L 70.4 69.5 L 70.2 64.4 L 70.2 58.8 L 70.4 52.7 L 70.7 46.1 L 71.3 39.0 L 71.95107917785644 31.83812952041626 L 71.5 31.1 L 70.3 29.6 L 68.7 28.1 L 66.9 26.8 L 64.7 25.6 L 62.2 24.7 L 59.3 23.8 L 56.0 23.7 L 55.8 21.9 L 59.2 21.4 L 62.5 20.7 L 65.7 20.5 L 68.9 20.7 L 72.0 21.4 L 75.0 22.5 L 77.8 24.2 L 80.5 26.2 L 82.8 28.7 L 85.0 31.6 L 85.2 36.1 L 83.35870590209962 38.32225141525269 L 83.2 40.0 L 82.7 46.9 L 82.3 53.2 L 82.2 59.0 L 82.2 64.1 L 82.3 68.8 L 82.7 72.8 L 83.1 76.2 L 83.7 78.9 L 84.4 80.9 L 84.36884756088257 82.33301258087158 L 85.1 81.9 L 85.6 83.5 L 86.2 84.9 L 86.9 86.2 L 87.7 87.4 L 88.6 88.4 L 89.7 89.3 L 91.0 90.2 L 92.7 90.8 L 94.6 91.4 L 96.7 91.1 L 96.74205780029297 91.24299659729004 L 98.0 90.7 L 111.8 85.4 L 124.8 80.6 L 135.8 76.3 L 135.9720000267029 76.75200004577637 L 136.2 76.6 L 137.2 75.6 L 137.9 74.5 L 138.2 73.1 L 138.2 71.4 L 137.8 69.5 L 136.9 67.4 L 135.4 65.2 L 136.3 63.6 L 139.3 64.6 L 142.0 66.3 L 144.1 68.8 L 145.6 71.8 L 146.2 75.3 L 145.8 79.1 L 144.1 82.7 L 141.2 86.1 L 139.87758617401124 87.01551723480225 L 140.1 87.6 L 138.07527275085448 88.26327276229858 L 137.3 88.8 L 132.4 90.9 L 130.71296758651732 90.6750623703003 Z " />
</g>
</svg>
